<svg width="97" height="72" viewBox="0 0 97 72" fill="none" xmlns="http://www.w3.org/2000/svg">
<path d="M25.648 71.344C21.8933 71.344 18.2667 69.7227 14.768 66.48C14.256 66.3093 13.8293 65.9253 13.488 65.328C13.1467 64.816 12.8053 64.3893 12.464 64.048C11.8667 63.8773 11.4827 63.6213 11.312 63.28C11.1413 62.9387 10.9707 62.512 10.8 62C10.8 61.9147 10.7147 61.7867 10.544 61.616C10.4587 61.5307 10.3733 61.4453 10.288 61.36C10.2027 61.2747 10.1173 61.1893 10.032 61.104C9.94667 61.104 9.904 61.104 9.904 61.104C9.98933 61.0187 10.032 60.976 10.032 60.976C9.69067 60.2933 9.47733 59.824 9.392 59.568C9.30667 59.2267 8.96533 58.8 8.368 58.288C8.19733 58.1173 8.02667 57.8613 7.856 57.52C7.77067 57.0933 7.68533 56.752 7.6 56.496C6.66133 54.2773 5.808 52.016 5.04 49.712C4.35733 47.3227 4.016 44.8907 4.016 42.416C4.016 41.5627 4.272 40.9227 4.784 40.496C5.296 40.0693 5.85067 39.856 6.448 39.856C7.55733 39.856 8.28267 40.4107 8.624 41.52C8.79467 41.8613 8.96533 42.2453 9.136 42.672C9.392 43.0133 9.52 43.3547 9.52 43.696V44.976C9.52 45.488 9.648 45.616 9.904 45.36C10.2453 45.0187 10.4587 45.0613 10.544 45.488C10.7147 46.0853 10.8427 46.4693 10.928 46.64C11.0133 46.7253 11.3547 46.9387 11.952 47.28C12.1227 47.6213 12.336 47.9627 12.592 48.304C12.848 48.6453 13.104 48.9867 13.36 49.328V49.584C13.36 50.096 13.5307 50.48 13.872 50.736C14.2133 50.9067 14.5973 51.12 15.024 51.376L16.688 53.168C16.6027 53.3387 16.56 53.5093 16.56 53.68C16.56 54.192 16.816 54.5333 17.328 54.704C17.9253 54.8747 18.4373 55.0453 18.864 55.216C18.9493 55.3013 19.4187 55.728 20.272 56.496C21.2107 57.1787 21.8507 57.6053 22.192 57.776C22.6187 58.032 23.088 58.3307 23.6 58.672C24.112 58.928 24.624 59.1413 25.136 59.312C25.3067 59.312 25.4773 59.3973 25.648 59.568C27.184 60.1653 28.592 60.464 29.872 60.464C31.0667 60.464 32.432 60.208 33.968 59.696C34.224 59.6107 34.4373 59.568 34.608 59.568C34.864 59.4827 35.0347 59.44 35.12 59.44C35.376 59.44 35.504 59.5253 35.504 59.696C35.504 60.1227 35.12 60.5493 34.352 60.976C34.352 61.1467 34.224 61.232 33.968 61.232C33.6267 61.3173 33.2853 61.4453 32.944 61.616C32.6027 61.7867 32.2613 61.8293 31.92 61.744C31.4933 61.744 31.152 61.7013 30.896 61.616C30.64 61.5307 30.2987 61.6587 29.872 62C28.7627 61.9147 27.5253 61.6587 26.16 61.232C24.7947 60.8053 23.6427 60.336 22.704 59.824C22.6187 59.2267 22.2347 58.928 21.552 58.928C20.8693 58.8427 20.3147 58.6293 19.888 58.288C19.5467 57.8613 19.248 57.392 18.992 56.88C18.8213 56.368 18.3947 56.3253 17.712 56.752C17.3707 56.4107 17.072 56.1547 16.816 55.984C16.56 55.728 16.176 55.6 15.664 55.6C15.4933 55.4293 15.2373 55.2587 14.896 55.088C14.64 54.9173 14.5547 54.6613 14.64 54.32C14.2987 54.064 13.616 53.6373 12.592 53.04C11.6533 52.3573 11.0987 51.9307 10.928 51.76C10.16 50.9067 9.30667 50.1813 8.368 49.584L7.984 49.328C9.09333 52.656 10.416 55.8987 11.952 59.056C13.5733 62.2133 15.92 64.7733 18.992 66.736C20.4427 67.5893 21.7653 68.272 22.96 68.784C24.24 69.3813 25.4773 69.68 26.672 69.68C28.8907 69.68 31.2373 68.5707 33.712 66.352C35.8453 64.3893 37.7653 62.0427 39.472 59.312C41.1787 56.496 42.7147 53.552 44.08 50.48C45.4453 47.408 46.64 44.5493 47.664 41.904C47.8347 41.7333 47.9627 41.6053 48.048 41.52C48.1333 41.4347 48.2187 41.3493 48.304 41.264C48.56 40.6667 48.7307 39.984 48.816 39.216C48.9867 38.3627 49.1573 37.6373 49.328 37.04C49.7547 36.528 50.1387 35.9307 50.48 35.248C50.9067 34.48 51.12 33.7547 51.12 33.072L51.376 32.432C51.5467 32.3467 51.504 32.2187 51.248 32.048C50.992 31.8773 51.1627 31.7493 51.76 31.664C52.3573 30.7253 52.6987 29.7867 52.784 28.848C52.9547 27.824 53.2107 27.0987 53.552 26.672C53.808 26.2453 54.064 25.8613 54.32 25.52C54.576 25.1787 54.6187 24.752 54.448 24.24C54.5333 23.8987 54.7893 23.088 55.216 21.808C55.728 20.4427 56.2827 18.9493 56.88 17.328C57.4773 15.7067 57.9893 14.2987 58.416 13.104C58.8427 11.824 59.056 11.0987 59.056 10.928L60.464 7.216C58.0747 7.30133 55.6 7.42933 53.04 7.6C50.5653 7.77067 48.1333 8.15467 45.744 8.752C45.8293 8.66666 45.7867 8.58133 45.616 8.496C45.4453 8.32533 45.3173 8.24 45.232 8.24L45.104 8.112C44.7627 8.02666 44.6773 8.112 44.848 8.368C45.104 8.53866 45.0613 8.70933 44.72 8.88C43.952 8.96533 43.056 9.17866 42.032 9.52C41.0933 9.776 40.24 9.904 39.472 9.904C39.1307 9.98933 38.7467 10.032 38.32 10.032C37.8933 9.94667 37.4667 9.904 37.04 9.904C35.76 9.98933 34.48 10.3307 33.2 10.928C32.0053 11.5253 30.768 12.0373 29.488 12.464L27.184 13.104C26.2453 13.5307 25.2213 13.8293 24.112 14C23.0027 14.1707 21.9787 14.4693 21.04 14.896L21.168 15.024C20.8267 15.28 20.4 15.4507 19.888 15.536C19.376 15.6213 18.9067 15.7493 18.48 15.92C17.456 16.2613 16.3893 16.688 15.28 17.2C14.256 17.6267 13.1893 18.0107 12.08 18.352C11.4827 18.5227 10.8853 18.6933 10.288 18.864C9.776 18.9493 9.17867 19.12 8.496 19.376C8.15467 19.4613 7.856 19.5467 7.6 19.632C7.344 19.632 7.04533 19.632 6.704 19.632C5.936 19.632 5.25333 19.4613 4.656 19.12C4.31467 18.9493 3.80267 18.48 3.12 17.712C2.52267 16.8587 2.01067 16.0053 1.584 15.152C1.15733 14.2133 0.986667 13.5307 1.072 13.104C1.15733 12.848 1.712 12.5493 2.736 12.208C3.76 11.7813 4.95467 11.3973 6.32 11.056C7.68533 10.6293 8.92267 10.288 10.032 10.032C11.2267 9.69066 11.9947 9.47733 12.336 9.392C12.5067 9.30666 12.976 9.22133 13.744 9.136C14.512 8.96533 14.9387 9.05066 15.024 9.392C15.1093 9.56267 15.024 9.81866 14.768 10.16C14.512 10.416 14.2987 10.6293 14.128 10.8C14.128 10.8853 14 11.056 13.744 11.312C13.5733 11.568 13.5733 11.6533 13.744 11.568L18.224 10.416C18.9067 10.2453 19.7173 10.2027 20.656 10.288C21.68 10.288 22.448 10.1173 22.96 9.776C23.1307 9.60533 23.216 9.43466 23.216 9.264C23.3013 9.09333 23.472 9.008 23.728 9.008C24.3253 8.83733 25.3067 8.66667 26.672 8.496C28.1227 8.32533 29.0187 8.06933 29.36 7.728C30.0427 7.55733 30.768 7.472 31.536 7.472C32.304 7.38666 32.9867 7.17333 33.584 6.832C33.84 6.74666 34.6507 6.576 36.016 6.32C37.4667 6.064 39.088 5.808 40.88 5.552C42.7573 5.21066 44.4213 4.95466 45.872 4.784C47.3227 4.528 48.176 4.4 48.432 4.4H48.56C48.9013 4.4 49.2427 4.35733 49.584 4.272C49.9253 4.18666 50.2667 4.144 50.608 4.144C51.2907 4.144 51.632 4.44266 51.632 5.04C51.7173 5.12533 51.9307 5.168 52.272 5.168C53.04 5.168 53.6373 4.95466 54.064 4.528C54.4053 4.44266 54.6613 4.31466 54.832 4.144C55.088 3.97333 55.3867 3.84533 55.728 3.76C56.6667 3.58933 57.648 3.54666 58.672 3.632C59.7813 3.632 60.7627 3.632 61.616 3.632C62.2133 2.352 62.8533 1.49866 63.536 1.072C64.2187 0.559998 65.2427 0.303997 66.608 0.303997C67.5467 0.303997 68.144 0.773331 68.4 1.712C68.656 2.56533 68.784 3.33333 68.784 4.016C69.2107 4.016 69.7653 4.016 70.448 4.016C71.1307 3.93066 71.856 3.888 72.624 3.888C73.392 3.888 74.1173 3.93066 74.8 4.016C75.568 4.10133 76.1653 4.22933 76.592 4.4C76.6773 4.144 76.8907 4.05866 77.232 4.144C77.6587 4.144 77.9573 4.18666 78.128 4.272C78.8107 4.61333 79.536 4.784 80.304 4.784C81.1573 4.69866 81.968 4.82666 82.736 5.168C83.504 5.424 84.2293 5.72267 84.912 6.064C85.5947 6.40533 86.32 6.704 87.088 6.96C87.7707 7.13066 88.2827 7.38666 88.624 7.728C89.0507 8.06933 89.5627 8.45333 90.16 8.88C90.8427 9.392 91.2693 9.86133 91.44 10.288C91.44 10.288 91.4827 10.4587 91.568 10.8C91.6533 11.056 91.568 11.1413 91.312 11.056C91.2267 11.056 91.0987 11.056 90.928 11.056C90.8427 10.9707 90.7573 10.9707 90.672 11.056C90.672 11.3973 90.8 11.696 91.056 11.952C91.2267 12.0373 91.3973 12.0373 91.568 11.952C91.824 11.8667 91.9947 11.7813 92.08 11.696C92.4213 11.696 92.592 11.8667 92.592 12.208C92.6773 12.5493 92.7627 12.8907 92.848 13.232C93.104 14.256 93.232 15.28 93.232 16.304C93.232 17.4133 92.9333 18.6507 92.336 20.016C91.824 21.3813 91.0987 22.576 90.16 23.6C89.2213 24.5387 88.112 25.008 86.832 25.008C86.4053 25.008 86.064 24.9653 85.808 24.88C84.8693 24.624 84.4 24.368 84.4 24.112C84.4 23.856 84.8267 23.4293 85.68 22.832C86.2773 22.4053 86.7893 21.936 87.216 21.424C87.6427 20.8267 88.0267 20.2293 88.368 19.632C88.9653 19.2053 89.4347 18.352 89.776 17.072C90.1173 15.792 90.288 14.5973 90.288 13.488C90.288 12.6347 90.16 11.952 89.904 11.44C89.8187 11.44 89.4347 10.9707 88.752 10.032C88.1547 9.09333 87.4293 8.58133 86.576 8.496C86.1493 8.32533 85.68 8.15466 85.168 7.984C84.7413 7.81333 84.3147 7.68533 83.888 7.6C83.5467 7.25866 82.864 7.00266 81.84 6.832C80.9013 6.66133 79.92 6.53333 78.896 6.448C77.872 6.36266 77.104 6.32 76.592 6.32C76.1653 6.32 75.3973 6.36266 74.288 6.448C73.1787 6.448 72.0693 6.49066 70.96 6.576C69.8507 6.576 69.0827 6.576 68.656 6.576C67.888 8.79467 66.5653 10.1173 64.688 10.544C64.6027 10.8 64.2613 11.696 63.664 13.232C63.0667 14.768 62.4267 16.4747 61.744 18.352C61.0613 20.144 60.4213 21.7653 59.824 23.216C59.312 24.5813 59.0133 25.3493 58.928 25.52C58.672 25.8613 58.416 26.2027 58.16 26.544C57.904 26.8853 57.7333 27.2693 57.648 27.696C57.5627 28.5493 57.1787 29.744 56.496 31.28C55.8987 32.816 55.216 34.352 54.448 35.888C53.7653 37.3387 53.2107 38.5333 52.784 39.472C52.272 39.8133 51.8453 40.112 51.504 40.368C51.1627 40.5387 51.248 40.9227 51.76 41.52C51.504 42.1173 51.248 42.416 50.992 42.416C50.736 42.3307 50.3947 42.2453 49.968 42.16C50.0533 42.5867 50.1813 42.8853 50.352 43.056C50.5227 43.1413 50.6507 43.3973 50.736 43.824C50.0533 45.36 49.2 47.2373 48.176 49.456C47.152 51.5893 46.128 53.296 45.104 54.576C44.5067 54.832 44.0373 55.088 43.696 55.344C43.3547 55.6 43.3547 56.112 43.696 56.88C43.5253 57.0507 43.3973 57.264 43.312 57.52C43.2267 57.776 43.1413 58.032 43.056 58.288L42.032 59.824C41.6907 60.08 41.3493 60.3787 41.008 60.72C40.6667 60.976 40.496 61.4027 40.496 62C40.1547 62.512 39.856 62.896 39.6 63.152C39.088 63.3227 38.6613 63.536 38.32 63.792C37.9787 64.048 37.808 64.5173 37.808 65.2C36.1013 67.0773 34.1813 68.5707 32.048 69.68C30 70.7893 27.8667 71.344 25.648 71.344Z" fill="#F49FAF"/>
<path d="M66.4118 62L68.3436 50.3636H75.3664L75.1618 51.6136H69.5482L68.8891 55.5455H74.1391L73.9345 56.7955H68.6845L68.0255 60.75H73.73L73.5255 62H66.4118ZM76.4661 50.3636H78.148L80.5116 60.0227H80.648L86.1934 50.3636H87.8752L85.9434 62H84.6252L86.1025 53.1591H85.9889L80.8752 62H79.6025L77.4434 53.1591H77.3298L75.8525 62H74.5343L76.4661 50.3636ZM87.3287 62L89.2605 50.3636H93.1923C94.1014 50.3636 94.8192 50.5265 95.3457 50.8523C95.876 51.178 96.234 51.6193 96.4196 52.1761C96.609 52.733 96.6469 53.3561 96.5332 54.0455C96.4196 54.7273 96.1753 55.3485 95.8003 55.9091C95.4291 56.4697 94.9253 56.9167 94.2889 57.25C93.6563 57.5833 92.8893 57.75 91.9878 57.75H89.1696L89.3741 56.5H92.1469C92.7681 56.5 93.287 56.392 93.7037 56.1761C94.1204 55.9602 94.4461 55.6667 94.681 55.2955C94.9158 54.9242 95.0711 54.5076 95.1469 54.0455C95.2226 53.5758 95.2037 53.1591 95.0901 52.7955C94.9802 52.428 94.751 52.1402 94.4026 51.9318C94.0579 51.7197 93.5711 51.6136 92.9423 51.6136H90.4651L88.7378 62H87.3287Z" fill="black"/>
</svg>
